<svg width="28" height="28" viewBox="0 0 28 28" fill="none" xmlns="http://www.w3.org/2000/svg">
<path d="M13.9409 2.1875C11.6271 2.1875 9.36526 2.88029 7.44141 4.17827C5.51756 5.47624 4.0181 7.3211 3.13265 9.47955C2.2472 11.638 2.01552 14.0131 2.46692 16.3045C2.91832 18.5959 4.03252 20.7007 5.66862 22.3527C7.30472 24.0047 9.38924 25.1297 11.6586 25.5855C13.9279 26.0413 16.2801 25.8074 18.4178 24.9133C20.5555 24.0193 22.3826 22.5052 23.6681 20.5627C24.9535 18.6201 25.6397 16.3363 25.6397 14C25.6362 10.8682 24.4026 7.86566 22.2094 5.65114C20.0162 3.43662 17.0425 2.19097 13.9409 2.1875ZM15.2408 23.0923V17.0625H17.4072C17.7519 17.0625 18.0826 16.9242 18.3263 16.6781C18.5701 16.4319 18.7071 16.0981 18.7071 15.75C18.7071 15.4019 18.5701 15.0681 18.3263 14.8219C18.0826 14.5758 17.7519 14.4375 17.4072 14.4375H15.2408V12.25C15.2408 11.9019 15.3777 11.5681 15.6215 11.3219C15.8653 11.0758 16.1959 10.9375 16.5406 10.9375H18.2738C18.6185 10.9375 18.9491 10.7992 19.1929 10.5531C19.4367 10.3069 19.5736 9.9731 19.5736 9.625C19.5736 9.2769 19.4367 8.94306 19.1929 8.69692C18.9491 8.45078 18.6185 8.3125 18.2738 8.3125H16.5406C15.5064 8.3125 14.5145 8.72734 13.7832 9.46577C13.0519 10.2042 12.641 11.2057 12.641 12.25V14.4375H10.4746C10.1298 14.4375 9.79922 14.5758 9.55545 14.8219C9.31168 15.0681 9.17473 15.4019 9.17473 15.75C9.17473 16.0981 9.31168 16.4319 9.55545 16.6781C9.79922 16.9242 10.1298 17.0625 10.4746 17.0625H12.641V23.0923C10.3642 22.7605 8.29637 21.5702 6.85366 19.761C5.41096 17.9518 4.70048 15.658 4.86522 13.3411C5.02996 11.0243 6.05768 8.85649 7.74156 7.27394C9.42544 5.69139 11.6405 4.81158 13.9409 4.81158C16.2413 4.81158 18.4564 5.69139 20.1402 7.27394C21.8241 8.85649 22.8518 11.0243 23.0166 13.3411C23.1813 15.658 22.4708 17.9518 21.0281 19.761C19.5854 21.5702 17.5176 22.7605 15.2408 23.0923Z" fill="#0E0E0E" fill-opacity="0.9"/>
</svg>
