<svg width="163" height="163" viewBox="0 0 163 163" fill="none" xmlns="http://www.w3.org/2000/svg">
<path d="M81.5 15.2812C68.4032 15.2813 55.6005 19.1649 44.7109 26.4411C33.8212 33.7173 25.3338 44.0593 20.3219 56.1592C15.3099 68.2591 13.9986 81.5735 16.5537 94.4186C19.1087 107.264 25.4154 119.063 34.6763 128.324C43.9372 137.585 55.7362 143.891 68.5814 146.446C81.4266 149.001 94.741 147.69 106.841 142.678C118.941 137.666 129.283 129.179 136.559 118.289C143.835 107.4 147.719 94.5968 147.719 81.5C147.7 63.9434 140.718 47.1112 128.303 34.6967C115.889 22.2823 99.0566 15.2998 81.5 15.2812ZM110.573 69.8226L74.9164 105.479C74.4433 105.952 73.8815 106.328 73.2631 106.584C72.6448 106.841 71.9819 106.973 71.3125 106.973C70.6431 106.973 69.9803 106.841 69.3619 106.584C68.7436 106.328 68.1818 105.952 67.7087 105.479L52.4274 90.1976C51.4717 89.2418 50.9347 87.9454 50.9347 86.5938C50.9347 85.2421 51.4717 83.9457 52.4274 82.9899C53.3832 82.0341 54.6796 81.4972 56.0313 81.4972C57.383 81.4972 58.6793 82.0341 59.6351 82.9899L71.3125 94.6737L103.365 62.6149C103.838 62.1417 104.4 61.7662 105.018 61.5101C105.637 61.254 106.299 61.1222 106.969 61.1222C107.638 61.1222 108.301 61.254 108.919 61.5101C109.538 61.7662 110.099 62.1417 110.573 62.6149C111.046 63.0882 111.421 63.65 111.677 64.2684C111.934 64.8867 112.065 65.5495 112.065 66.2188C112.065 66.888 111.934 67.5508 111.677 68.1691C111.421 68.7875 111.046 69.3493 110.573 69.8226Z" fill="#343330"/>
</svg>
